<svg width="73" height="63" viewBox="0 0 73 63" fill="none" xmlns="http://www.w3.org/2000/svg">
<path d="M25.4567 31.0872C33.4217 31.0872 39.8771 24.1357 39.8771 15.5585C39.8771 6.98131 33.4217 0.0297852 25.4567 0.0297852C17.4917 0.0297852 11.0363 6.98131 11.0363 15.5585C11.0363 24.1357 17.4917 31.0872 25.4567 31.0872ZM35.551 34.9694H33.6696C31.1685 36.2068 28.3859 36.9105 25.4567 36.9105C22.5276 36.9105 19.7561 36.2068 17.2438 34.9694H15.3624C7.00306 34.9694 0.220947 42.2727 0.220947 51.2745V56.3214C0.220947 59.5363 2.64313 62.1446 5.62861 62.1446H36.5987C36.3284 61.3197 36.2157 60.4462 36.3058 59.5606L37.0719 52.1723L37.2071 50.8257L38.0971 49.8673L46.8057 40.4894C44.0455 37.1289 40.0461 34.9694 35.551 34.9694V34.9694ZM40.6545 52.5969L39.8884 59.9973C39.7645 61.2348 40.7333 62.2781 41.8712 62.1325L48.7322 61.3076L64.2679 44.5778L56.1902 35.8793L40.6545 52.5969V52.5969ZM71.5345 32.6522L67.2647 28.0543C66.2169 26.926 64.5045 26.926 63.4568 28.0543L59.1983 32.6401L58.7364 33.1375L66.8253 41.836L71.5345 36.7649C72.5822 35.6245 72.5822 33.7926 71.5345 32.6522V32.6522Z" fill="#F5D627"/>
</svg>
